<svg xmlns="http://www.w3.org/2000/svg" width="1600" height="1000"><rect width="100%" height="100%" fill="white"/>
<text x="20" y="37" font-family="Microsoft YaHei,sans-serif" font-size="23" font-weight="700" fill="#282828">09 / 论文撰写 · AI 打开</text>
<text x="20" y="61" font-family="Microsoft YaHei,sans-serif" font-size="13" font-weight="400" fill="#777777">Oleafly 式源文件—编辑—渲染关系：预览始终属于中央呈现层。</text>
<rect x="20" y="80" width="1560" height="848" fill="white" stroke="#bdbdbd"/>
<path d="M20 123 L1580 123" stroke="#d3d3d3" stroke-width="1"/>
<path d="M20 904 L1580 904" stroke="#d3d3d3" stroke-width="1"/>
<text x="35" y="107" font-family="Microsoft YaHei,sans-serif" font-size="15" font-weight="700" fill="#282828">Scientify</text>
<text x="140" y="106" font-family="Microsoft YaHei,sans-serif" font-size="13" font-weight="400" fill="#282828">&gt;  我的空间  &gt;  示例研究</text>
<text x="738" y="106" font-family="Microsoft YaHei,sans-serif" font-size="12" font-weight="400" fill="#777777">搜索项目与资料…</text>
<rect x="1347" y="87" width="98" height="27" fill="#eaeaea" stroke="#d3d3d3"/>
<text x="1357" y="104" font-family="Microsoft YaHei,sans-serif" font-size="12" font-weight="400" fill="#282828">AI 助手</text>
<rect x="1455" y="87" width="106" height="27" fill="white" stroke="#d3d3d3"/>
<text x="1465" y="104" font-family="Microsoft YaHei,sans-serif" font-size="12" font-weight="400" fill="#282828">研究笔记</text>
<rect x="20" y="124" width="248" height="779" fill="#f7f7f7" stroke="#f7f7f7"/>
<path d="M268 123 L268 904" stroke="#d3d3d3" stroke-width="1"/>
<rect x="44" y="134" width="5" height="5" fill="white" stroke="#555555"/>
<rect x="52" y="134" width="5" height="5" fill="white" stroke="#555555"/>
<rect x="44" y="142" width="5" height="5" fill="white" stroke="#555555"/>
<rect x="52" y="142" width="5" height="5" fill="white" stroke="#555555"/>
<text x="37" y="167" font-family="Microsoft YaHei,sans-serif" font-size="13" font-weight="400" fill="#282828">概览</text>
<rect x="106" y="134" width="13" height="15" fill="white" stroke="#555555"/>
<path d="M109 139 L116 139" stroke="#777777" stroke-width="1"/>
<path d="M109 143 L116 143" stroke="#777777" stroke-width="1"/>
<text x="99" y="167" font-family="Microsoft YaHei,sans-serif" font-size="13" font-weight="400" fill="#282828">文献</text>
<path d="M173 134 L168 141" stroke="#555555" stroke-width="1"/>
<path d="M168 141 L173 148" stroke="#555555" stroke-width="1"/>
<path d="M177 134 L182 141" stroke="#555555" stroke-width="1"/>
<path d="M182 141 L177 148" stroke="#555555" stroke-width="1"/>
<text x="161" y="167" font-family="Microsoft YaHei,sans-serif" font-size="13" font-weight="400" fill="#282828">实验</text>
<path d="M230 148 L243 135" stroke="#555555" stroke-width="2"/>
<path d="M230 148 L236 148" stroke="#555555" stroke-width="1"/>
<text x="223" y="167" font-family="Microsoft YaHei,sans-serif" font-size="13" font-weight="700" fill="#282828">论文</text>
<path d="M213 176 L261 176" stroke="#282828" stroke-width="2"/>
<path d="M20 179 L268 179" stroke="#d3d3d3" stroke-width="1"/>
<text x="34" y="204" font-family="Microsoft YaHei,sans-serif" font-size="13" font-weight="700" fill="#282828">文件</text>
<path d="M34 216 L60 216" stroke="#282828" stroke-width="2"/>
<text x="149" y="204" font-family="Microsoft YaHei,sans-serif" font-size="13" font-weight="400" fill="#777777">引用</text>
<path d="M20 219 L268 219" stroke="#d3d3d3" stroke-width="1"/>
<text x="38" y="879" font-family="Microsoft YaHei,sans-serif" font-size="12" font-weight="400" fill="#777777">个人    设置    帮助</text>
<text x="35" y="922" font-family="Microsoft YaHei,sans-serif" font-size="11" font-weight="400" fill="#777777">已保存</text>
<text x="1420" y="922" font-family="Microsoft YaHei,sans-serif" font-size="11" font-weight="400" fill="#777777">任务 0  ·  本地</text>
<path d="M1244 123 L1244 904" stroke="#aaaaaa" stroke-width="1"/>
<text x="1261" y="149" font-family="Microsoft YaHei,sans-serif" font-size="13" font-weight="700" fill="#282828">AI 助手</text>
<text x="1354" y="149" font-family="Microsoft YaHei,sans-serif" font-size="13" font-weight="400" fill="#777777">研究笔记</text>
<text x="1500" y="151" font-family="Microsoft YaHei,sans-serif" font-size="15" font-weight="400" fill="#777777">…    ×</text>
<path d="M1244 160 L1580 160" stroke="#d3d3d3" stroke-width="1"/>
<path d="M1259 159 L1323 159" stroke="#282828" stroke-width="2"/>
<text x="1261" y="186" font-family="Microsoft YaHei,sans-serif" font-size="11" font-weight="700" fill="#777777">当前工作内容</text>
<text x="1261" y="209" font-family="Microsoft YaHei,sans-serif" font-size="12" font-weight="400" fill="#282828">main.tex · Introduction</text>
<text x="1261" y="232" font-family="Microsoft YaHei,sans-serif" font-size="11" font-weight="400" fill="#777777">跟随当前内容  ·  可固定或移除材料</text>
<path d="M1259 248 L1564 248" stroke="#d3d3d3" stroke-width="1"/>
<text x="1261" y="280" font-family="Microsoft YaHei,sans-serif" font-size="12" font-weight="700" fill="#282828">你</text>
<text x="1261" y="310" font-family="Microsoft YaHei,sans-serif" font-size="14" font-weight="400" fill="#282828">请结合当前材料，</text>
<text x="1261" y="336" font-family="Microsoft YaHei,sans-serif" font-size="14" font-weight="400" fill="#282828">帮我梳理下一步需要检查的问题。</text>
<text x="1261" y="392" font-family="Microsoft YaHei,sans-serif" font-size="12" font-weight="700" fill="#282828">助手</text>
<text x="1261" y="422" font-family="Microsoft YaHei,sans-serif" font-size="14" font-weight="400" fill="#282828">可以先核对以下两点：</text>
<text x="1261" y="451" font-family="Microsoft YaHei,sans-serif" font-size="14" font-weight="400" fill="#282828"></text>
<text x="1261" y="480" font-family="Microsoft YaHei,sans-serif" font-size="14" font-weight="400" fill="#282828">1. 当前结果依据哪些材料？</text>
<text x="1261" y="509" font-family="Microsoft YaHei,sans-serif" font-size="14" font-weight="400" fill="#282828">2. 还有哪些条件尚未验证？</text>
<text x="1261" y="538" font-family="Microsoft YaHei,sans-serif" font-size="14" font-weight="400" fill="#282828"></text>
<text x="1261" y="567" font-family="Microsoft YaHei,sans-serif" font-size="14" font-weight="400" fill="#282828">引用与材料定位显示在回答末尾。</text>
<text x="1261" y="641" font-family="Microsoft YaHei,sans-serif" font-size="12" font-weight="400" fill="#777777">复制    保存为笔记</text>
<rect x="1259" y="773" width="305" height="108" fill="white" stroke="#aaaaaa"/>
<text x="1271" y="800" font-family="Microsoft YaHei,sans-serif" font-size="14" font-weight="400" fill="#777777">继续提问…</text>
<text x="1271" y="861" font-family="Microsoft YaHei,sans-serif" font-size="12" font-weight="400" fill="#777777">＋ 材料    模型</text>
<text x="1500" y="861" font-family="Microsoft YaHei,sans-serif" font-size="12" font-weight="400" fill="#282828">发送 ↑</text>
<text x="36" y="253" font-family="Microsoft YaHei,sans-serif" font-size="11" font-weight="700" fill="#777777">稿件文件</text>
<rect x="28" y="271" width="232" height="27" fill="#e9e9e9" stroke="#e9e9e9"/>
<text x="42" y="287" font-family="Microsoft YaHei,sans-serif" font-size="13" font-weight="400" fill="#282828">main.tex</text>
<text x="42" y="316" font-family="Microsoft YaHei,sans-serif" font-size="13" font-weight="400" fill="#282828">references.bib</text>
<text x="42" y="345" font-family="Microsoft YaHei,sans-serif" font-size="13" font-weight="400" fill="#282828">&gt;  sections</text>
<text x="42" y="374" font-family="Microsoft YaHei,sans-serif" font-size="13" font-weight="400" fill="#282828">&gt;  figures</text>
<text x="36" y="590" font-family="Microsoft YaHei,sans-serif" font-size="11" font-weight="700" fill="#777777">文档大纲</text>
<text x="42" y="624" font-family="Microsoft YaHei,sans-serif" font-size="13" font-weight="400" fill="#282828">1  Introduction</text>
<text x="42" y="653" font-family="Microsoft YaHei,sans-serif" font-size="13" font-weight="400" fill="#282828">2  Method</text>
<text x="42" y="682" font-family="Microsoft YaHei,sans-serif" font-size="13" font-weight="400" fill="#282828">3  Results</text>
<rect x="269" y="124" width="975" height="33" fill="#fafafa" stroke="#fafafa"/>
<text x="283" y="145" font-family="Microsoft YaHei,sans-serif" font-size="12" font-weight="700" fill="#282828">main.tex  ×</text>
<path d="M276 156 L380 156" stroke="#282828" stroke-width="2"/>
<text x="417" y="145" font-family="Microsoft YaHei,sans-serif" font-size="12" font-weight="400" fill="#777777">references.bib  ×</text>
<path d="M268 157 L1244 157" stroke="#d3d3d3" stroke-width="1"/>
<text x="284" y="180" font-family="Microsoft YaHei,sans-serif" font-size="12" font-weight="400" fill="#777777">源码 / 分栏 / 预览                                        编译    导出</text>
<path d="M268 189 L1244 189" stroke="#d3d3d3" stroke-width="1"/>
<path d="M775 189 L775 904" stroke="#d3d3d3" stroke-width="1"/>
<text x="292" y="227" font-family="Consolas,sans-serif" font-size="12" font-weight="400" fill="#999999">1</text>
<text x="329" y="228" font-family="Consolas,sans-serif" font-size="13" font-weight="400" fill="#282828">\documentclass{article}</text>
<text x="292" y="254" font-family="Consolas,sans-serif" font-size="12" font-weight="400" fill="#999999">2</text>
<text x="329" y="255" font-family="Consolas,sans-serif" font-size="13" font-weight="400" fill="#282828">\usepackage{graphicx}</text>
<text x="292" y="281" font-family="Consolas,sans-serif" font-size="12" font-weight="400" fill="#999999">3</text>
<text x="329" y="282" font-family="Consolas,sans-serif" font-size="13" font-weight="400" fill="#777777"></text>
<text x="292" y="308" font-family="Consolas,sans-serif" font-size="12" font-weight="400" fill="#999999">4</text>
<text x="329" y="309" font-family="Consolas,sans-serif" font-size="13" font-weight="400" fill="#282828">\title{Research notes}</text>
<text x="292" y="335" font-family="Consolas,sans-serif" font-size="12" font-weight="400" fill="#999999">5</text>
<text x="329" y="336" font-family="Consolas,sans-serif" font-size="13" font-weight="400" fill="#282828">\begin{document}</text>
<text x="292" y="362" font-family="Consolas,sans-serif" font-size="12" font-weight="400" fill="#999999">6</text>
<text x="329" y="363" font-family="Consolas,sans-serif" font-size="13" font-weight="400" fill="#282828">\maketitle</text>
<text x="292" y="389" font-family="Consolas,sans-serif" font-size="12" font-weight="400" fill="#999999">7</text>
<text x="329" y="390" font-family="Consolas,sans-serif" font-size="13" font-weight="400" fill="#777777"></text>
<text x="292" y="416" font-family="Consolas,sans-serif" font-size="12" font-weight="400" fill="#999999">8</text>
<text x="329" y="417" font-family="Consolas,sans-serif" font-size="13" font-weight="400" fill="#282828">\section{Introduction}</text>
<text x="292" y="443" font-family="Consolas,sans-serif" font-size="12" font-weight="400" fill="#999999">9</text>
<text x="329" y="444" font-family="Consolas,sans-serif" font-size="13" font-weight="400" fill="#282828">Describe the research question.</text>
<text x="292" y="470" font-family="Consolas,sans-serif" font-size="12" font-weight="400" fill="#999999">10</text>
<text x="329" y="471" font-family="Consolas,sans-serif" font-size="13" font-weight="400" fill="#282828"></text>
<text x="292" y="497" font-family="Consolas,sans-serif" font-size="12" font-weight="400" fill="#999999">11</text>
<text x="329" y="498" font-family="Consolas,sans-serif" font-size="13" font-weight="400" fill="#282828">\section{Method}</text>
<text x="292" y="524" font-family="Consolas,sans-serif" font-size="12" font-weight="400" fill="#999999">12</text>
<text x="329" y="525" font-family="Consolas,sans-serif" font-size="13" font-weight="400" fill="#282828">Define the evaluation protocol.</text>
<text x="292" y="551" font-family="Consolas,sans-serif" font-size="12" font-weight="400" fill="#999999">13</text>
<text x="329" y="552" font-family="Consolas,sans-serif" font-size="13" font-weight="400" fill="#282828"></text>
<text x="292" y="578" font-family="Consolas,sans-serif" font-size="12" font-weight="400" fill="#999999">14</text>
<text x="329" y="579" font-family="Consolas,sans-serif" font-size="13" font-weight="400" fill="#282828">\end{document}</text>
<rect x="323" y="593" width="430" height="25" fill="#f5f5f5" stroke="#f5f5f5"/>
<rect x="776" y="190" width="468" height="714" fill="#f4f4f4" stroke="#f4f4f4"/>
<rect x="798" y="219" width="423" height="647" fill="white" stroke="#d3d3d3"/>
<text x="833" y="276" font-family="Microsoft YaHei,sans-serif" font-size="18" font-weight="700" fill="#282828">Research notes</text>
<text x="833" y="308" font-family="Microsoft YaHei,sans-serif" font-size="11" font-weight="400" fill="#777777">Illustrative document · layout study</text>
<text x="833" y="361" font-family="Microsoft YaHei,sans-serif" font-size="14" font-weight="700" fill="#282828">1  Introduction</text>
<path d="M833 397 L1186 397" stroke="#bbbbbb" stroke-width="1"/>
<path d="M833 419 L1164.82 419" stroke="#bbbbbb" stroke-width="1"/>
<path d="M833 441 L1178.94 441" stroke="#bbbbbb" stroke-width="1"/>
<path d="M833 463 L1087.16 463" stroke="#bbbbbb" stroke-width="1"/>
<path d="M833 485 L1186 485" stroke="#bbbbbb" stroke-width="1"/>
<text x="833" y="513" font-family="Microsoft YaHei,sans-serif" font-size="14" font-weight="700" fill="#282828">2  Method</text>
<path d="M833 529 L1178.94 529" stroke="#bbbbbb" stroke-width="1"/>
<path d="M833 551 L1087.16 551" stroke="#bbbbbb" stroke-width="1"/>
<path d="M833 573 L1186 573" stroke="#bbbbbb" stroke-width="1"/>
<path d="M833 595 L1164.82 595" stroke="#bbbbbb" stroke-width="1"/>
<path d="M833 617 L1178.94 617" stroke="#bbbbbb" stroke-width="1"/>
<path d="M833 639 L1087.16 639" stroke="#bbbbbb" stroke-width="1"/>
<path d="M833 661 L1186 661" stroke="#bbbbbb" stroke-width="1"/>
<path d="M833 683 L1164.82 683" stroke="#bbbbbb" stroke-width="1"/>
<path d="M833 705 L1178.94 705" stroke="#bbbbbb" stroke-width="1"/>
<path d="M833 727 L1087.16 727" stroke="#bbbbbb" stroke-width="1"/>
<text x="1009.5" y="838" font-family="Microsoft YaHei,sans-serif" font-size="11" font-weight="400" fill="#777777">1</text>
<text x="20" y="964" font-family="Microsoft YaHei,sans-serif" font-size="14" font-weight="400" fill="#777777">AI 打开时，源文与渲染仍可并排；收起右侧后中央区域自然扩展。</text>
</svg>