<svg xmlns="http://www.w3.org/2000/svg" width="1440" height="920" viewBox="0 0 1440 920">
<rect width="100%" height="100%" fill="white"/>
<text x="24" y="39" font-family="Microsoft YaHei, sans-serif" font-size="23" font-weight="700" fill="#222222">11  全局设置 / 系统页面</text>
<text x="24" y="62" font-family="Microsoft YaHei, sans-serif" font-size="13" font-weight="400" fill="#686868">全局工具场景 · 设置沿用应用框架，关闭后返回原项目与编辑现场</text>
<rect x="20" y="80" width="1400" height="780" fill="white" stroke="#a0a0a0"/>
<rect x="20" y="80" width="1400" height="47" fill="#f3f3f3" stroke="#a0a0a0"/>
<text x="36" y="109" font-family="Microsoft YaHei, sans-serif" font-size="16" font-weight="700" fill="#222222">← 项目集合    /    当前空间    /    当前项目 · 切换</text>
<text x="1080" y="108" font-family="Microsoft YaHei, sans-serif" font-size="14" font-weight="400" fill="#222222">全局搜索    布局    通知    设置</text>
<rect x="20" y="127" width="104" height="705" fill="#f7f7f7" stroke="#a0a0a0"/>
<rect x="60" y="150" width="20" height="20" fill="white" stroke="#707070"/>
<text x="42" y="192" font-family="Microsoft YaHei, sans-serif" font-size="13" font-weight="400" fill="#222222">项目概览</text>
<rect x="25" y="224" width="94" height="65" fill="#e4e4e4" stroke="#aaaaaa"/>
<rect x="25" y="224" width="3" height="65" fill="#333333" stroke="#333333"/>
<rect x="60" y="232" width="20" height="20" fill="white" stroke="#707070"/>
<text x="33" y="274" font-family="Microsoft YaHei, sans-serif" font-size="13" font-weight="700" fill="#222222">研究工作台</text>
<rect x="60" y="314" width="20" height="20" fill="white" stroke="#707070"/>
<text x="42" y="356" font-family="Microsoft YaHei, sans-serif" font-size="13" font-weight="400" fill="#222222">文献库</text>
<rect x="60" y="396" width="20" height="20" fill="white" stroke="#707070"/>
<text x="33" y="438" font-family="Microsoft YaHei, sans-serif" font-size="13" font-weight="400" fill="#222222">论文订阅区</text>
<rect x="60" y="478" width="20" height="20" fill="white" stroke="#707070"/>
<text x="33" y="520" font-family="Microsoft YaHei, sans-serif" font-size="13" font-weight="400" fill="#222222">实验与代码</text>
<rect x="60" y="560" width="20" height="20" fill="white" stroke="#707070"/>
<text x="33" y="602" font-family="Microsoft YaHei, sans-serif" font-size="13" font-weight="400" fill="#222222">AI 助手</text>
<text x="45" y="799" font-family="Microsoft YaHei, sans-serif" font-size="13" font-weight="400" fill="#686868">帮助</text>
<rect x="124" y="127" width="230" height="705" fill="#fbfbfb" stroke="#a0a0a0"/>
<text x="140" y="158" font-family="Microsoft YaHei, sans-serif" font-size="15" font-weight="700" fill="#222222">研究工作台 / 二级导航</text>
<rect x="134" y="178" width="210" height="30" fill="#e8e8e8" stroke="#e8e8e8"/>
<text x="148" y="195" font-family="Microsoft YaHei, sans-serif" font-size="14" font-weight="700" fill="#222222">文件与编辑</text>
<text x="148" y="230" font-family="Microsoft YaHei, sans-serif" font-size="14" font-weight="400" fill="#222222">研究记录</text>
<text x="148" y="265" font-family="Microsoft YaHei, sans-serif" font-size="14" font-weight="400" fill="#222222">历史版本</text>
<path d="M124 298 L354 298" fill="none" stroke="#a0a0a0"/>
<text x="140" y="326" font-family="Microsoft YaHei, sans-serif" font-size="14" font-weight="700" fill="#222222">原工作区状态保留</text>
<rect x="140" y="347" width="198" height="37" fill="#fafafa" stroke="#d0d0d0"/>
<path d="M155 361 L264.74 361" fill="none" stroke="#c6c6c6"/>
<path d="M155 372 L219.2 372" fill="none" stroke="#dedede"/>
<rect x="140" y="392" width="198" height="37" fill="#fafafa" stroke="#d0d0d0"/>
<path d="M155 406 L264.74 406" fill="none" stroke="#c6c6c6"/>
<path d="M155 417 L219.2 417" fill="none" stroke="#dedede"/>
<rect x="140" y="437" width="198" height="37" fill="#fafafa" stroke="#d0d0d0"/>
<path d="M155 451 L264.74 451" fill="none" stroke="#c6c6c6"/>
<path d="M155 462 L219.2 462" fill="none" stroke="#dedede"/>
<rect x="140" y="482" width="198" height="37" fill="#fafafa" stroke="#d0d0d0"/>
<path d="M155 496 L264.74 496" fill="none" stroke="#c6c6c6"/>
<path d="M155 507 L219.2 507" fill="none" stroke="#dedede"/>
<rect x="354" y="127" width="1066" height="705" fill="white" stroke="#a0a0a0"/>
<rect x="20" y="832" width="1400" height="28" fill="#f3f3f3" stroke="#a0a0a0"/>
<text x="36" y="850" font-family="Microsoft YaHei, sans-serif" font-size="12" font-weight="400" fill="#222222">保存状态 / 后台任务</text>
<text x="1080" y="850" font-family="Microsoft YaHei, sans-serif" font-size="12" font-weight="400" fill="#222222">当前对象状态    ·    本地工作区</text>
<rect x="280" y="151" width="1060" height="639" fill="#ffffff" stroke="#555555"/>
<rect x="280" y="151" width="1060" height="48" fill="#f3f3f3" stroke="#a0a0a0"/>
<text x="300" y="182" font-family="Microsoft YaHei, sans-serif" font-size="17" font-weight="700" fill="#222222">应用设置</text>
<text x="1238" y="179" font-family="Microsoft YaHei, sans-serif" font-size="14" font-weight="400" fill="#222222">关闭 ×</text>
<rect x="280" y="199" width="238" height="591" fill="#f7f7f7" stroke="#a0a0a0"/>
<text x="304" y="242" font-family="Microsoft YaHei, sans-serif" font-size="15" font-weight="400" fill="#222222">账号与团队</text>
<text x="304" y="290" font-family="Microsoft YaHei, sans-serif" font-size="15" font-weight="700" fill="#222222">外观与交互</text>
<text x="304" y="338" font-family="Microsoft YaHei, sans-serif" font-size="15" font-weight="400" fill="#222222">模型与连接</text>
<text x="304" y="386" font-family="Microsoft YaHei, sans-serif" font-size="15" font-weight="400" fill="#222222">数据与备份</text>
<text x="304" y="434" font-family="Microsoft YaHei, sans-serif" font-size="15" font-weight="400" fill="#222222">扩展与关于</text>
<text x="549" y="247" font-family="Microsoft YaHei, sans-serif" font-size="20" font-weight="700" fill="#222222">当前设置分类</text>
<rect x="549" y="292" width="749" height="69" fill="#fafafa" stroke="#d0d0d0"/>
<path d="M564 306 L1020.87 306" fill="none" stroke="#c6c6c6"/>
<path d="M564 317 L848.6 317" fill="none" stroke="#dedede"/>
<rect x="549" y="369" width="749" height="69" fill="#fafafa" stroke="#d0d0d0"/>
<path d="M564 383 L1020.87 383" fill="none" stroke="#c6c6c6"/>
<path d="M564 394 L848.6 394" fill="none" stroke="#dedede"/>
<rect x="549" y="446" width="749" height="69" fill="#fafafa" stroke="#d0d0d0"/>
<path d="M564 460 L1020.87 460" fill="none" stroke="#c6c6c6"/>
<path d="M564 471 L848.6 471" fill="none" stroke="#dedede"/>
<rect x="549" y="523" width="749" height="69" fill="#fafafa" stroke="#d0d0d0"/>
<path d="M564 537 L1020.87 537" fill="none" stroke="#c6c6c6"/>
<path d="M564 548 L848.6 548" fill="none" stroke="#dedede"/>
<rect x="549" y="600" width="749" height="69" fill="#fafafa" stroke="#d0d0d0"/>
<path d="M564 614 L1020.87 614" fill="none" stroke="#c6c6c6"/>
<path d="M564 625 L848.6 625" fill="none" stroke="#dedede"/>
<text x="550" y="753" font-family="Microsoft YaHei, sans-serif" font-size="13" font-weight="400" fill="#686868">即时生效或显式保存，由具体设置项确定</text>
<text x="24" y="894" font-family="Microsoft YaHei, sans-serif" font-size="14" font-weight="400" fill="#686868">全局设置采用集中式对话窗口；不会成为第七个一级工作区。</text>
</svg>